/* XPM */ 
static char *c32bc79b92384d19ded3725a6a32d14a3GOduaHofpYHBLMt[] = {
/* columns rows colors chars-per-pixel */ 
"64 64 20 2 ",
"   c black",
"#  c gray66",
"$  c gray33",
">  c #ECECEC",
",  c gainsboro",
"<  c #D0D0D0",
"1  c #C0C0C0",
"2  c #B4B4B4",
"4  c #989898",
"5  c gray55",
"6  c #7C7C7C",
"7  c gray44",
"8  c #646464",
"9  c gray33",
"0  c #484848",
"q  c gray22",
"w  c #2C2C2C",
"e  c #202020",
"vX c #4C4C4C",
"bX c gray36",
/* pixels */
"q q q q q q q q q q q q q q q q q q q q q q q q q q q q q q q q q q q q q q q q q q q q q q q q q q q q q q q q q q q q q q q q ",
"q $ $ $ $ $ $ $ $ $ $ $ $ $ $ $ $ $ $ $ $ $ $ $ $ $ $ $ $ $ $ $ $ $ $ $ $ $ $ $ $ $ $ $ $ $ $ $ $ $ $ $ $ $ $ $ $ $ $ $ $ $ $ q ",
"q 5 8 8 8 $ vX5 8 8 8 8 8 $ vX5 8 8 8 8 8 $ vX5 8 8 8 8 8 $ vX5 8 8 8 8 8 $ vX5 8 8 8 8 8 $ vX5 8 8 8 8 8 $ vX5 8 8 8 8 8 8 $ q ",
"q 5 5 5 5 $ w vX5 5 5 5 5 $ w vX5 5 5 5 5 $ w vX5 5 5 5 5 $ w vX5 5 4 4 5 $ w vX4 4 4 5 5 $ w vX5 5 5 5 5 $ w vX5 8 8 8 8 8 $ q ",
"q 5 5 5 5 $ $ 8 5 5 5 5 5 $ $ 8 5 5 5 5 5 $ $ 8 5 5 5 5 5 $ $ 8 5 4 # < 5 $ $ 8 4 4 5 5 5 $ $ 8 5 5 5 5 5 $ $ 8 8 8 8 8 8 8 $ q ",
"q 5 5 5 5 bXq q q q q q q q q q q q q q q q q q q q q q q q q q q q q q q q q q q q q q q q q q q q q q q q q q q q 8 8 8 8 $ q ",
"q 5 5 5 5 5 $ $ vXvXvXvXvXvXvXvXvXvXvXvXvXvXvXvXvXvXvXvXvXvXvXvXvXvXvXvXvXvXvXvXvXvXvXvXvXvXvXvXvXvXvXvXvXvXvXvXvXq 8 8 8 8 $ q ",
"q 8 bX, 5 < 5 8 8 8 8 8 8 8 8 8 8 8 8 8 8 8 8 8 8 8 8 8 8 8 8 8 8 8 8 8 8 8 8 8 8 8 8 8 8 8 8 8 8 8 8 8 8 8 8 8 vXq 8 bX, 8 $ q ",
"q $ vXbX5 , 4 7 7 7 7 7 7 7 7 7 7 7 7 7 7 7 7 7 5 5 5 5 5 5 5 5 5 4 5 4 5 4 5 4 5 5 5 5 5 5 5 7 7 7 7 7 8 8 8 8 vXq $ vXbX8 $ q ",
"q $ $ 8 5 , # 7 7 7 7 7 7 7 7 7 7 7 7 7 7 7 5 5 5 5 5 5 5 5 5 5 4 5 4 5 4 5 4 5 5 5 5 5 5 5 7 7 7 7 7 8 8 8 8 8 vXq $ $ 8 8 $ q ",
"q 7 7 5 5 , # 7 7 7 7 7 7 7 7 7 7 7 7 7 5 5 5 5 5 5 5 5 5 4 5 4 5 4 5 4 5 4 5 5 5 5 5 5 5 7 7 7 7 7 8 7 8 8 8 8 vXq 8 7 7 8 $ q ",
"q 5 5 5 5 , # 7 7 7 7 7 7 7 7 7 7 7 5 5 5 5 5 5 5 5 5 5 4 5 4 5 4 5 4 5 4 5 5 5 5 5 5 5 7 5 7 7 7 8 7 8 8 8 8 8 vXq 8 7 7 8 $ q ",
"q 5 5 5 5 , # 7 7 7 7 7 7 7 7 5 5 5 5 5 5 5 5 5 5 4 5 4 5 4 5 4 5 4 5 4 5 5 5 5 5 5 5 7 5 7 7 7 8 7 8 8 8 8 8 8 vXq 8 7 5 8 $ q ",
"q 5 5 5 5 , # 7 7 7 7 7 7 5 5 5 5 5 5 5 5 5 5 5 4 5 4 5 4 5 4 5 4 5 4 5 5 5 5 5 5 5 7 5 7 7 7 8 7 8 8 8 8 8 8 8 vXq 7 7 5 8 $ q ",
"q 5 5 5 5 , # 7 7 7 7 5 5 5 5 5 5 5 5 5 5 5 5 4 5 4 5 4 5 4 5 4 5 4 5 5 5 5 5 5 5 7 5 7 7 7 8 7 8 8 8 8 8 8 8 8 vXq 7 5 5 8 $ q ",
"q 8 bX, 5 , # 7 7 5 5 5 5 5 5 5 5 5 5 5 5 5 4 5 4 5 4 5 4 5 4 5 4 5 5 5 5 5 5 5 7 5 7 7 7 8 7 8 8 8 8 8 8 8 8 8 vXq 8 bX, 8 $ q ",
"q $ vXbX5 , # 5 5 5 5 5 5 5 5 5 5 5 5 4 5 4 5 4 5 4 5 4 5 4 5 4 5 5 5 5 5 5 5 5 5 7 7 7 7 7 8 8 8 8 8 8 8 bX8 8 vXq $ vXbX8 $ q ",
"q $ $ 8 5 , # 5 5 5 5 5 5 5 5 5 5 5 4 5 4 5 4 5 4 5 4 5 4 5 4 5 5 5 5 5 5 5 5 5 7 7 7 7 7 8 8 8 8 8 8 8 8 bX8 8 vXq $ $ 8 8 $ q ",
"q 7 7 5 5 , # 5 5 5 5 5 5 5 5 5 5 4 5 4 5 4 5 4 5 4 5 4 5 4 5 5 5 5 5 5 5 5 5 7 7 7 7 7 8 7 8 8 8 8 8 8 bX8 8 8 vXq 7 7 5 8 $ q ",
"q 5 5 5 5 , # 5 5 5 5 5 5 5 5 5 4 5 4 5 4 5 4 5 4 5 4 5 4 5 5 5 5 5 5 5 5 5 7 7 7 7 7 8 7 8 8 8 8 8 8 8 bX8 8 8 vXq 7 5 5 8 $ q ",
"q 5 5 5 5 , # 5 5 5 5 5 5 5 5 4 5 4 5 4 5 4 5 4 5 4 5 4 5 4 5 5 5 5 5 5 5 7 7 7 7 7 8 7 8 8 8 8 8 8 8 8 8 8 8 8 vXq 7 5 5 8 $ q ",
"q 5 5 5 5 , # 5 5 5 5 5 4 5 4 5 4 5 4 5 4 5 4 5 4 5 4 5 4 5 5 5 5 5 5 5 7 5 7 7 7 8 7 8 8 8 8 8 8 8 8 bX8 8 8 8 vXq 5 5 5 8 $ q ",
"q 5 5 5 5 , # 5 5 5 5 4 5 4 5 4 5 4 5 4 5 4 5 4 5 4 5 4 5 5 5 5 5 5 5 7 5 7 7 7 7 7 8 8 8 8 8 8 8 8 bX8 8 8 8 8 vXq 5 5 5 8 $ q ",
"q 8 bX, 5 , # 5 5 5 4 5 4 5 4 5 4 5 4 5 4 5 4 5 4 5 4 5 5 5 5 5 5 5 7 5 7 7 7 7 7 8 8 8 8 8 8 8 8 bX8 8 8 8 8 8 vXq 8 bX, 8 $ q ",
"q $ vXbX5 , # 5 5 4 5 4 5 4 5 4 5 4 5 4 5 4 5 4 5 4 5 5 5 5 5 5 5 7 5 7 7 7 7 7 8 8 8 8 8 8 8 8 bX8 8 8 8 8 8 8 vXq $ vXbX8 $ q ",
"q $ $ 8 5 , # 5 4 5 4 5 4 5 4 5 4 5 4 5 4 5 4 5 4 5 5 5 5 5 5 5 7 5 7 7 7 7 7 8 8 8 8 8 8 8 8 bX8 bX8 8 8 8 8 8 vXq $ $ 8 8 $ q ",
"q 7 7 5 5 , # 4 5 4 5 4 5 4 5 4 5 4 5 4 5 4 5 4 5 5 5 5 5 5 5 5 5 7 7 7 7 7 8 7 8 8 8 8 8 8 bX8 bX8 8 8 8 8 8 8 vXq 7 7 7 8 $ q ",
"q 5 5 5 5 , # 5 4 5 4 5 4 5 4 # < < < < < < < 1 1 5 5 5 5 5 5 5 7 7 7 7 7 8 7 8 8 8 8 8 8 bX8 bX8 8 8 8 8 8 8 8 vXq 5 7 7 8 $ q ",
"q 5 5 5 5 , # 4 5 4 5 4 5 4 5 6 8 7 7 6 6 5 4 # 1 5 5 5 5 5 5 7 7 7 7 7 8 7 8 8 8 8 8 8 8 8 bX8 bX8 8 8 8 8 8 8 vXq 7 7 8 8 $ q ",
"q 5 5 5 5 , # 5 4 4 1 , 4 5 $ w 8 q # 7 6 $ < 4 2 5 5 5 5 5 7 7 7 7 7 8 7 8 8 8 8 8 8 8 8 bX8 bX8 8 8 8 8 8 8 8 vXq 7 8 bX8 $ q ",
"q 5 5 5 5 , # 4 $ vX7 , 5 7 $ w 8 8 8 7 7 6 6 5 2 5 5 5 5 7 5 7 7 7 8 7 8 8 8 8 8 8 8 8 bX8 bX8 bX8 8 8 8 8 8 8 vXq 7 8 $ 8 $ q ",
"q 8 bX, 5 , # bX$ q 7 1 # 8 $ w 8 8 8 8 7 7 6 6 2 5 5 5 7 5 7 7 7 7 7 8 8 8 8 8 8 8 8 bX8 bX8 bX8 8 8 8 8 8 8 8 vXq 8 $ 4 8 $ q ",
"q $ vXbX5 , 5 bX8 q 7 1 4 8 $ w 8 8 8 8 8 7 7 6 # 5 5 7 5 7 7 7 7 7 8 8 8 8 8 8 8 8 bX8 bX8 bX8 bX8 8 8 8 8 8 8 vXq $ vX$ 8 $ q ",
"q $ $ 8 4 , 8 bX< q 7 1 4 8 $ w $ 0 7 2 2 , 7 7 # 5 7 5 7 7 7 7 7 8 8 8 8 8 8 8 8 8 8 bX8 bX8 bX8 8 8 8 8 8 8 8 vXq $ $ 8 8 $ q ",
"q 7 7 4 # # 8 bX# q 7 2 4 8 $ w 0 w 8     2 8 7 # 7 5 7 7 7 7 7 8 7 8 8 8 8 8 8 8 8 bX8 bX8 bX8 8 8 8 8 8 8 8 8 vXq $ $ 8 8 $ q ",
"q 4 # # < 5 8 bX# q 7 2 4 8 $ w q w 8     2 8 8 # 5 7 7 7 7 7 8 7 8 8 8 8 8 8 8 8 bX8 bX8 bX8 bX8 8 8 8 8 8 8 8 vXq $ 8 8 8 $ q ",
"q # # < < 5 8 bX# q 7 2 4 8 $ w w w vXw w 2 8 8 # 7 7 7 7 7 8 7 8 8 8 8 8 8 8 8 bX8 bX8 bX8 bX8 8 8 8 8 8 8 8 8 vXq bX8 7 8 $ q ",
"q # < < , 5 8 bX4 q 7 4 4 8 $ w w w vXvX8 7 8 8 # 7 7 7 7 8 7 8 8 8 8 8 8 8 8 bX8 bX8 bX8 bX8 8 8 8 8 8 8 8 8 8 vXq bX8 7 8 $ q ",
"q < , , , 5 8 bX4 q 7 4 4 8 $ w w w w w w w 8 8 4 7 7 7 8 7 8 8 8 8 8 8 8 8 bX8 bX8 bX8 bX8 8 8 8 8 8 8 8 8 8 8 vXq 8 8 5 8 $ q ",
"q # 5 , > 5 8 bX4 q 7 5 4 8 $ w w w w w w 0 8 8 4 7 7 8 7 8 8 8 8 8 8 8 8 8 8 bX8 bX8 bX8 bX8 8 8 8 8 8 8 8 8 8 vXq 8 $ < 8 $ q ",
"q 5 $ 5 , 5 8 bX8 $ q 8 5 8 $ w q q 0 0 $ 8 8 8 4 7 7 7 8 8 8 8 8 8 8 8 8 8 bX8 bX8 bX8 bX8 8 8 8 8 8 8 8 8 8 8 vXq $ vX$ 8 $ q ",
"q 5 5 # , 5 8 bX$ $ bX5 5 8 $ w q e 7 $ 8 w 5 8 5 7 7 8 7 8 8 8 8 8 8 8 8 bX8 bX8 bX8 bX8 8 8 8 8 8 8 8 8 8 7 8 vXq $ $ 8 8 $ q ",
"q # # , < 5 8 bXbXbX5 5 5 8 $ w w q $ $ $ 8 8 8 5 7 8 7 8 8 8 8 8 8 8 8 bX8 bX8 bX8 bX8 8 8 8 8 8 8 8 8 8 8 8 8 vXq bX8 7 8 $ q ",
"q > , < < 5 8 bX8 5 5 5 5 8 $ w w w w w w w w w 8 8 7 8 8 8 8 8 8 8 8 bX8 bX8 bX8 bX8 bX8 8 8 8 8 8 8 8 8 8 7 8 vXq 8 8 7 8 $ q ",
"q , < < # 5 8 8 5 5 5 5 5 8 $ $ $ $ $ $ $ $ $ $ 8 7 8 8 8 8 8 8 8 8 8 8 bX8 bX8 bX8 bX8 8 8 8 8 8 8 8 8 8 7 8 8 vXq 8 7 5 8 $ q ",
"q < < # # 5 8 5 5 5 5 5 5 8 8 8 8 8 8 8 8 8 8 7 7 8 8 8 8 8 8 8 8 8 8 bX8 bX8 bX8 bX8 8 8 8 8 8 8 8 8 8 8 8 7 8 vXq 8 7 5 8 $ q ",
"q < # 4 4 4 5 5 5 5 5 5 5 5 5 5 5 7 5 7 7 7 7 7 8 8 8 8 8 8 8 8 8 8 bX8 bX8 bX8 bX8 8 8 8 8 8 8 8 8 8 8 8 7 8 8 vXq 7 7 5 8 $ q ",
"q 8 bX, 4 , 5 5 5 5 5 5 5 5 5 5 7 5 7 7 7 7 7 8 8 8 8 8 8 8 8 8 8 bX8 bX8 bX8 bX8 bX8 8 8 8 8 8 8 8 8 8 8 8 7 8 vXq 8 bX, 8 $ q ",
"q $ vXbX4 , 4 5 5 5 5 5 5 5 5 7 5 7 7 7 7 7 8 8 8 8 8 8 8 8 8 8 bX8 bX8 bX8 bX8 bX8 8 8 8 8 8 8 8 8 8 8 8 7 7 8 vXq $ vXbX8 $ q ",
"q $ $ 8 4 , # 5 5 5 5 5 5 5 7 5 7 5 7 7 7 8 7 8 8 8 8 8 8 8 8 bX8 bX8 bX8 bX8 bX8 8 8 8 8 8 8 8 8 8 8 8 7 8 7 8 vXq $ $ 8 8 $ q ",
"q 7 7 4 4 , # 5 5 5 5 5 5 7 5 7 5 7 7 7 8 7 8 8 8 8 8 8 8 8 8 8 bX8 bX8 bX8 bX8 8 8 8 8 8 8 8 8 8 8 8 8 8 7 7 8 vXq 7 7 5 8 $ q ",
"q 4 4 4 5 , # 5 5 5 5 5 7 5 7 5 7 7 7 8 7 8 8 8 8 8 8 8 8 8 8 bX8 bX8 bX8 bX8 bX8 8 8 8 8 8 8 8 8 8 8 8 7 8 7 8 vXq 7 7 5 8 $ q ",
"q 4 4 5 5 , # 5 5 5 5 7 5 7 5 7 7 7 8 7 8 8 8 8 8 8 8 8 8 8 bX8 bX8 bX8 bX8 bX8 8 8 8 8 8 8 8 8 8 8 8 8 8 7 7 8 vXq 7 7 5 8 $ q ",
"q 5 5 5 5 , # 5 5 5 7 5 7 5 7 5 7 8 7 8 8 8 8 8 8 8 8 8 8 bX8 bX8 bX8 bX8 bX8 8 8 8 8 8 8 8 8 8 8 8 8 8 7 7 7 8 vXq 7 7 5 8 $ q ",
"q 5 5 5 5 , # 5 5 7 5 7 5 7 5 7 7 7 8 8 8 8 8 8 8 8 8 8 bX8 bX8 bX8 bX8 bX8 8 8 8 8 8 8 8 8 8 8 8 8 8 7 8 7 7 8 vXq 7 5 5 8 $ q ",
"q 8 bX, 5 , # 5 5 5 7 5 7 5 7 7 7 8 8 8 8 8 8 8 8 8 8 bX8 8 8 bX8 bX8 bX8 bX8 8 8 8 8 8 8 8 8 8 8 8 8 8 7 7 7 8 vXq 8 bX, 8 $ q ",
"q $ vXbX5 , # 5 5 7 5 7 5 7 7 7 8 8 8 8 8 8 8 8 8 8 8 8 8 8 bX8 bX8 bX8 bX8 8 8 8 8 8 8 8 8 8 8 8 8 8 7 8 7 7 7 $ q $ vXbX8 $ q ",
"q $ $ 8 5 , # # # # # # # # # # # # # # # # # # 4 4 4 5 5 5 7 7 7 7 5 5 4 4 4 4 4 4 4 4 4 4 4 4 5 5 5 5 5 5 5 5 $ q $ $ 8 8 $ q ",
"q 7 7 5 5 , , , , , , , , , , , , , , , , , , , < < < < # # 4 4 4 # # < < < < < < < < < < < < < < < < # # # # 4 8 $ 7 7 5 8 $ q ",
"q 5 5 5 5 5 5 5 5 5 5 5 5 5 7 7 7 7 8 8 8 8 8 8 8 8 8 bXbX$ $ $ $ $ bX8 8 8 8 8 8 8 8 7 7 5 5 5 5 5 5 5 5 5 5 5 5 5 5 5 5 8 $ q ",
"q 5 5 5 5 8 bX, 5 5 5 5 5 8 bX, 7 8 8 8 8 8 vX5 8 8 bXbX$ $ vX8 $ $ bX8 8 8 vX5 8 8 8 7 5 8 bX, 5 5 5 5 5 8 bX, 5 5 5 5 5 8 $ q ",
"q 5 5 5 5 $ vXbX5 5 5 5 5 $ vXbX8 8 8 8 8 $ w vX8 bXbX$ $ vXw q $ bXbX8 8 $ w vX8 8 7 7 5 $ vXbX5 5 5 5 5 $ vXbX5 5 5 5 5 8 $ q ",
"0 5 5 5 5 $ $ 8 5 5 5 5 5 $ $ 8 8 8 8 8 8 $ $ 8 8 bXbX$ $ vXvX$ bXbX8 8 8 $ $ 8 8 8 7 5 5 $ $ 8 5 5 5 5 5 $ $ 8 5 5 5 5 5 8 $ 0 ",
"$ $ $ $ $ $ $ $ $ $ $ $ $ $ $ $ $ $ $ $ $ $ $ $ $ $ $ $ $ $ $ $ $ $ $ $ $ $ $ $ $ $ $ $ $ $ $ $ $ $ $ $ $ $ $ $ $ $ $ $ $ $ $ $ "
};